<?xml version="1.0" encoding="utf-8"?>
<!-- Generator: Adobe Illustrator 27.7.0, SVG Export Plug-In . SVG Version: 6.00 Build 0)  -->
<svg version="1.1" id="Layer_1" xmlns="http://www.w3.org/2000/svg" xmlns:xlink="http://www.w3.org/1999/xlink" x="0px" y="0px"
	 viewBox="0 0 1761 1532" style="enable-background:new 0 0 1761 1532;" xml:space="preserve">
<style type="text/css">
	.st0{fill:#FFFFFF;}
</style>
<path class="st0" d="M1691.8,0c-7.4,27.5-32,104.3-106.5,165.9c-69,57-142,68.8-170.8,71.9c-355.7,2.5-711.4,4.9-1067.1,7.4
	c-30.6,6.8-110.5,28.7-180,101.4C97.9,419,79.3,499.8,73.7,530.8c-3.2,265-6.4,530-9.7,795c-1.3,103.6,82.1,188.2,185.3,188.2
	h1275.5c95.8,0,173.4-77.9,173.4-174C1696.1,893.3,1694,446.7,1691.8,0L1691.8,0z"/>
</svg>
